HIERARCHY
ROOT root
{
	OFFSET 0.000000 0.000000 0.000000
	CHANNELS 6 Xposition Yposition Zposition Zrotation Yrotation Xrotation
	JOINT lhip
	{
		OFFSET 0.058581 -0.082280 -0.017664
		CHANNELS 3 Zrotation Yrotation Xrotation
		JOINT lknee
		{
			OFFSET 0.043451 -0.386469 0.008037
			CHANNELS 3 Zrotation Yrotation Xrotation
			JOINT lankle
			{
				OFFSET -0.014790 -0.426874 -0.037428
				CHANNELS 3 Zrotation Yrotation Xrotation
				JOINT ltoe
				{
					OFFSET 0.041054 -0.060286 0.122042
					CHANNELS 3 Zrotation Yrotation Xrotation
					End Site
					{
						OFFSET 0.000000 0.000000 0.000000
					}
				}
			}
		}
	}
	JOINT rhip
	{
		OFFSET -0.060310 -0.090513 -0.013543
		CHANNELS 3 Zrotation Yrotation Xrotation
		JOINT rknee
		{
			OFFSET -0.043257 -0.383688 -0.004843
			CHANNELS 3 Zrotation Yrotation Xrotation
			JOINT rankle
			{
				OFFSET 0.019056 -0.420046 -0.034562
				CHANNELS 3 Zrotation Yrotation Xrotation
				JOINT rtoe
				{
					OFFSET -0.034840 -0.062106 0.130323
					CHANNELS 3 Zrotation Yrotation Xrotation
					End Site
					{
						OFFSET 0.000000 0.000000 0.000000
					}
				}
			}
		}
	}
	JOINT lowerback
	{
		OFFSET 0.004439 0.124404 -0.038385
		CHANNELS 3 Zrotation Yrotation Xrotation
		JOINT upperback
		{
			OFFSET 0.004488 0.137956 0.026820
			CHANNELS 3 Zrotation Yrotation Xrotation
			JOINT chest
			{
				OFFSET -0.002265 0.056032 0.002855
				CHANNELS 3 Zrotation Yrotation Xrotation
				JOINT lowerneck
				{
					OFFSET -0.013390 0.211636 -0.033468
					CHANNELS 3 Zrotation Yrotation Xrotation
					JOINT upperneck
					{
						OFFSET 0.010113 0.088937 0.050410
						CHANNELS 3 Zrotation Yrotation Xrotation
						End Site
						{
							OFFSET 0.000000 0.000000 0.000000
						}
					}
				}
				JOINT lclavicle
				{
					OFFSET 0.071702 0.114000 -0.018898
					CHANNELS 3 Zrotation Yrotation Xrotation
					JOINT lshoulder
					{
						OFFSET 0.122921 0.045205 -0.019046
						CHANNELS 3 Zrotation Yrotation Xrotation
						JOINT lelbow
						{
							OFFSET 0.255332 -0.015649 -0.022946
							CHANNELS 3 Zrotation Yrotation Xrotation
							JOINT lwrist
							{
								OFFSET 0.265709 0.012698 -0.007375
								CHANNELS 3 Zrotation Yrotation Xrotation
								End Site
								{
									OFFSET 0.000000 0.000000 0.000000
								}
							}
						}
					}
				}
				JOINT rclavicle
				{
					OFFSET -0.082954 0.112472 -0.023707
					CHANNELS 3 Zrotation Yrotation Xrotation
					JOINT rshoulder
					{
						OFFSET -0.113228 0.046853 -0.008472
						CHANNELS 3 Zrotation Yrotation Xrotation
						JOINT relbow
						{
							OFFSET -0.260127 -0.014369 -0.031269
							CHANNELS 3 Zrotation Yrotation Xrotation
							JOINT rwrist
							{
								OFFSET -0.269108 0.006794 -0.006027
								CHANNELS 3 Zrotation Yrotation Xrotation
								End Site
								{
									OFFSET 0.000000 0.000000 0.000000
								}
							}
						}
					}
				}
			}
		}
	}
}
MOTION
Frames: 16
Frame Time: 0.033333
0.255915 0.117792 0.978138 -172.792199 -2.284314 84.828311 -6.314493 -8.893313 -14.776217 -3.160991 -1.849972 16.404310 8.408683 13.105365 -8.806634 0.000000 -0.000000 0.000000 -0.197753 -2.872636 14.651444 5.039641 5.909149 26.497543 4.936120 -2.035484 -9.475379 0.000000 -0.000000 0.000000 -3.873439 9.736453 8.822629 -0.409462 -1.946952 8.421237 -1.243386 3.085211 3.233304 5.217300 10.847899 1.972093 0.159725 4.882422 3.497468 -28.345084 -6.115347 3.403291 -47.681101 -0.198732 9.924962 4.098931 -14.294480 2.402180 0.215153 2.604428 -1.912791 30.668487 11.965305 9.773630 52.358457 15.874261 11.927063 -16.004916 23.603935 -14.620696 1.519569 1.333135 -15.813231 
0.248699 0.151541 0.982074 -172.300568 -2.076726 84.173246 -6.600336 -8.172651 -11.364489 -4.152276 -3.307856 16.148396 9.395546 13.878122 -10.034120 0.000000 -0.000000 0.000000 -0.889308 -2.430739 9.748313 6.703820 4.257682 38.403016 6.859463 -1.726750 -4.053425 0.000000 -0.000000 0.000000 -4.373777 8.173639 9.129801 -0.343835 -1.824735 8.213158 -1.306897 2.542000 3.283373 5.349196 11.324538 1.986055 0.149303 6.692120 3.888229 -27.986839 -6.446172 3.673796 -47.933042 -1.020527 9.773716 4.598447 -15.913261 1.185028 0.889387 2.478877 -2.973728 30.089112 11.662277 9.629637 52.749617 14.844881 12.392625 -14.550623 22.286352 -13.195664 3.079219 1.240744 -14.390045 
0.241099 0.184109 0.986079 -171.124351 -1.939028 83.201782 -7.117252 -6.952866 -7.184274 -4.875741 -5.385544 15.118153 9.676910 14.245273 -11.545046 0.000000 -0.000000 0.000000 -1.011229 -1.894290 4.795882 6.648055 2.133777 48.607744 7.032522 -3.207760 -2.335706 0.000000 -0.000000 0.000000 -4.655958 6.285822 9.995929 -0.348742 -1.820662 8.139937 -1.346798 1.901393 3.311750 5.293131 11.961029 1.828091 0.062636 8.096714 4.116364 -27.804571 -7.094639 4.068495 -47.790459 -1.980480 9.658939 5.009063 -18.436351 0.468874 1.354482 2.250672 -4.091958 29.741130 11.543237 9.514249 52.661075 13.514190 12.604396 -13.481669 21.584898 -11.872000 4.580641 1.034864 -13.138430 
0.233486 0.215816 0.990367 -169.697243 -1.673163 82.224451 -7.603381 -5.749359 -2.767759 -4.843923 -7.699874 13.627738 9.230519 14.505406 -12.913470 0.000000 -0.000000 0.000000 -0.605929 -1.143972 0.027973 5.002245 0.184833 55.580481 5.602751 -6.162982 -4.070446 0.000000 -0.000000 0.000000 -4.686626 4.469180 10.898327 -0.324107 -1.786005 8.320147 -1.329848 1.233909 3.215202 5.317238 12.546359 1.931845 -0.040391 8.861600 4.103989 -28.054998 -7.893088 4.472132 -46.940702 -3.226856 9.749189 5.114987 -21.217053 0.308922 1.814085 1.852482 -4.794784 29.855034 11.407544 9.560949 51.979211 11.900331 12.688225 -12.709302 21.389957 -10.855851 5.244102 0.935827 -12.371457 
0.225995 0.246660 0.994686 -168.254622 -1.244330 81.566745 -7.790254 -4.619489 1.346280 -4.314946 -9.969440 11.938639 8.491019 14.607493 -13.995560 0.000000 -0.000000 0.000000 0.062302 -0.166289 -4.757979 2.758819 -1.128016 58.773978 3.897970 -9.434961 -6.592170 0.000000 -0.000000 0.000000 -4.532244 2.851481 11.497785 -0.235263 -1.597104 8.529467 -1.243262 0.670111 3.046419 5.483336 12.840147 2.393912 0.009406 9.077864 4.040830 -28.324780 -8.601135 4.704006 -45.978643 -4.896052 10.029077 5.073310 -23.875407 0.652626 2.215025 1.432789 -5.024540 30.058637 11.092409 9.743264 51.332270 10.145381 12.759181 -12.229463 21.269912 -10.337200 5.090466 0.957303 -12.257855 
0.218716 0.276825 0.998181 -166.821125 -0.772165 81.157774 -7.572017 -3.392743 5.045270 -3.778804 -12.156597 10.346493 7.713263 14.405576 -14.944947 0.000000 -0.000000 0.000000 0.744372 0.954799 -9.178804 0.846582 -1.772269 58.190690 2.727817 -11.961492 -8.801794 0.000000 -0.000000 0.000000 -4.356678 1.416281 12.010255 -0.115068 -1.337617 8.482984 -1.077566 0.251652 2.919531 5.684892 12.869874 2.915453 0.306958 8.903587 4.138457 -28.209976 -9.191082 4.717505 -45.498456 -6.834197 10.399614 5.107735 -26.388982 1.176841 2.606446 1.101318 -5.231527 30.039389 10.687094 9.946945 51.202398 8.406087 12.816829 -12.092117 21.066663 -10.342718 4.742587 0.862633 -12.849844 
0.211541 0.306803 1.000118 -165.301836 -0.371874 80.773838 -7.076261 -2.124929 8.398396 -3.434372 -14.169538 9.233349 6.891849 13.923483 -15.996385 0.000000 -0.000000 0.000000 1.260222 1.991553 -12.616764 -0.411532 -1.983069 54.025701 2.153930 -13.428300 -10.613626 0.000000 -0.000000 0.000000 -4.251700 0.170770 12.650777 -0.013835 -1.215327 8.246374 -0.854634 -0.122162 2.868779 5.831441 12.791387 3.293196 0.739135 8.518305 4.374702 -27.741265 -9.736463 4.619496 -45.427271 -8.812108 10.837515 5.188198 -28.819091 1.672861 3.212768 0.738832 -5.665800 29.825872 10.294283 10.057361 51.513474 6.867176 12.845913 -12.125444 20.753978 -10.644836 4.426790 0.761025 -13.762411 
0.204215 0.336974 1.000047 -163.720560 -0.128373 80.395574 -6.552697 -0.972801 11.385317 -3.254130 -15.818648 8.745968 6.126215 13.265101 -17.191045 0.000000 -0.000000 0.000000 1.481429 2.623578 -14.783225 -1.190413 -2.063159 46.614095 2.187009 -14.086874 -11.776893 0.000000 -0.000000 0.000000 -4.230660 -0.789903 13.256101 0.030305 -1.324975 8.089055 -0.610954 -0.522049 2.853288 5.868671 12.641840 3.562157 1.183274 8.080985 4.525726 -27.110028 -10.272976 4.532450 -45.453311 -10.756157 11.288103 5.264299 -31.123320 2.136547 3.903250 0.253755 -6.235563 29.563548 9.909128 10.098405 51.986521 5.662868 12.844697 -12.166319 20.408457 -10.986125 4.123736 0.745466 -14.546684 
0.196655 0.367610 0.997876 -162.257293 -0.095161 80.073181 -6.143323 0.129155 14.103071 -3.142043 -16.984841 8.630555 5.469341 12.518927 -18.388918 0.000000 -0.000000 0.000000 1.410897 2.537929 -15.576225 -1.882393 -2.585065 36.403792 2.718519 -14.428697 -12.259316 0.000000 -0.000000 0.000000 -4.286852 -1.386225 13.654098 -0.049314 -1.590254 8.097512 -0.346931 -0.913128 2.886379 5.786674 12.385367 3.783859 1.652837 7.713442 4.494415 -26.424820 -10.787719 4.464800 -45.420092 -12.603449 11.641575 5.300383 -33.286762 2.557259 4.451448 -0.216604 -6.822553 29.303736 9.589464 10.152092 52.508540 4.757029 12.818021 -12.150192 20.103670 -11.260548 3.839138 0.698018 -14.921392 
0.188998 0.398972 0.993842 -161.090052 -0.272196 79.887326 -5.812069 1.243595 16.617414 -3.076207 -17.626825 8.658921 4.849663 11.659348 -19.485742 0.000000 -0.000000 0.000000 1.285647 1.664322 -15.106470 -2.480527 -3.944242 24.283531 3.479229 -14.656377 -12.186447 0.000000 -0.000000 0.000000 -4.386874 -1.606975 13.759598 -0.292141 -1.901691 8.150597 -0.071494 -1.249967 2.990094 5.611179 12.033753 3.977448 2.194745 7.469483 4.410372 -25.721651 -11.215104 4.436559 -45.402213 -14.201219 11.809604 5.379243 -35.296932 2.944434 4.888394 -0.668383 -7.290466 28.965481 9.347438 10.278125 53.175179 4.060774 12.728585 -12.098475 19.944344 -11.331265 3.516377 0.593713 -14.994455 
0.181360 0.431361 0.988570 -160.267991 -0.570004 79.852677 -5.451261 2.197344 18.899545 -3.140146 -18.018478 9.004389 4.143098 10.702841 -20.497859 0.000000 -0.000000 0.000000 1.436176 0.417477 -13.847965 -2.696866 -5.613089 12.356404 4.286149 -14.571420 -11.703028 0.000000 -0.000000 0.000000 -4.470956 -1.593475 13.567642 -0.632504 -2.163546 8.091163 0.155177 -1.532188 3.185747 5.467185 11.734958 4.047729 2.694987 7.344886 4.644050 -25.057990 -11.374572 4.433740 -45.565578 -15.378100 11.838589 5.684228 -37.097470 3.268554 5.251263 -1.169066 -7.638029 28.452411 9.074343 10.377381 54.053859 3.546304 12.613453 -11.932011 19.816341 -10.991160 3.153137 0.607158 -15.041245 
0.173673 0.464849 0.983078 -159.684011 -0.860628 79.911193 -4.971276 2.730113 20.802881 -3.558364 -18.573150 10.179538 3.301208 9.809850 -21.273372 0.000000 -0.000000 0.000000 1.887510 -0.501643 -12.695950 -2.690079 -6.535956 4.154866 4.834846 -14.004892 -11.317852 0.000000 -0.000000 0.000000 -4.455007 -1.685125 13.220159 -0.961354 -2.325842 7.791785 0.192365 -1.777726 3.428659 5.525513 11.639552 3.913218 2.974956 7.292382 5.493753 -24.540825 -11.053613 4.363152 -46.004714 -15.949727 11.838676 6.345994 -38.594997 3.389656 5.342078 -1.594683 -8.131044 27.799799 8.651683 10.231015 55.043022 3.278642 12.594949 -11.592277 19.419104 -10.041973 3.216711 0.634259 -15.024050 
0.165747 0.499569 0.978535 -159.277131 -1.010286 80.035714 -4.268206 2.740015 22.030159 -4.677746 -19.194141 12.776656 2.369652 9.108006 -21.415933 0.000000 -0.000000 0.000000 2.384094 -0.497070 -12.258041 -2.739400 -6.226424 2.064150 4.588118 -13.342928 -11.267321 0.000000 -0.000000 0.000000 -4.202733 -2.129666 12.756825 -1.198612 -2.416301 7.445715 -0.083519 -1.984712 3.498206 5.748219 11.731428 3.722435 2.959942 7.420490 6.673028 -24.408016 -10.276623 4.330659 -46.503053 -15.740685 11.783726 7.400017 -39.768889 3.062211 5.014215 -1.761645 -8.995491 27.278738 8.147456 9.832821 55.835148 3.266877 12.707637 -11.210156 18.634492 -8.671469 4.092290 0.543107 -14.803021 
0.157305 0.535614 0.975915 -159.194131 -0.933145 80.091869 -3.381916 2.372096 22.191134 -6.701952 -19.235636 17.588199 1.215545 8.423576 -20.422922 0.000000 -0.000000 0.000000 2.767979 0.180642 -12.316631 -2.603451 -5.378125 4.906822 3.800965 -12.682434 -10.965264 0.000000 -0.000000 0.000000 -3.579866 -2.779337 12.320459 -1.311851 -2.479921 7.304339 -0.610158 -2.070055 3.233826 5.807543 11.853267 3.641742 2.761239 7.820239 7.640572 -24.872121 -9.405927 4.497011 -46.808483 -14.750229 11.554958 8.727797 -40.395029 2.130346 4.462461 -1.725835 -9.865197 27.126728 7.765510 9.485276 56.103719 3.387974 12.749284 -10.977263 17.939186 -7.371218 5.420183 0.353289 -14.449422 
0.148521 0.572450 0.975635 -159.650126 -0.645281 80.070565 -2.432722 1.769913 20.516650 -9.660293 -17.827902 25.492802 -0.276654 7.303660 -17.587355 0.000000 -0.000000 0.000000 3.086038 0.782365 -12.207689 -2.022071 -4.889981 9.174582 2.943874 -11.857167 -10.110908 0.000000 -0.000000 0.000000 -2.668710 -3.125013 11.956107 -1.231355 -2.581807 7.463063 -1.157912 -1.974189 2.644898 5.439811 11.815954 3.854711 2.574623 8.451503 7.963836 -25.819411 -8.745988 4.828988 -47.040291 -13.313420 11.191229 10.053634 -40.000856 0.815505 4.097599 -1.550990 -10.299603 27.307320 7.548072 9.452637 55.740796 3.551224 12.554845 -10.936831 17.907350 -6.334560 6.496371 0.227903 -14.247727 
0.140223 0.608804 0.976802 -160.547958 -0.216133 80.065706 -1.283246 1.159059 16.526309 -12.961639 -14.716802 36.198539 -1.971330 5.651646 -12.939289 0.000000 -0.000000 0.000000 3.538927 0.720438 -11.448266 -1.209947 -4.654321 12.365106 1.704716 -10.729598 -9.689423 0.000000 -0.000000 0.000000 -1.767971 -2.766657 11.704795 -0.889201 -2.784267 7.687319 -1.459832 -1.777710 2.038844 4.748230 11.566241 4.241712 2.534605 9.061243 7.851571 -26.706859 -8.451938 5.135435 -47.602329 -11.909342 10.755340 10.897713 -38.435172 -0.225446 4.164678 -1.071971 -10.480477 27.474820 7.450922 9.659731 55.047420 3.745725 12.032386 -11.095029 18.694993 -5.401763 7.008411 0.294060 -14.489839 
